<?xml version="1.0" encoding="UTF-8"?>
<svg id="Layer_2" data-name="Layer 2" xmlns="http://www.w3.org/2000/svg" viewBox="0 0 399.53 399.53">
  <defs>
    <style>
      .cls-1 {
        fill: #fff;
      }
    </style>
  </defs>
  <g id="Layer_1-2" data-name="Layer 1">
    <path class="cls-1" d="m199.76,0C89.44,0,0,89.44,0,199.76c0,44.28,14.41,85.19,38.79,118.31,18.97-9.18,37.95-18.38,56.91-27.57v79.81c1.23.76,2.46,1.49,3.71,2.21-.2-40.18-.39-80.69-.59-120.88-.04-31.66-.08-63.33-.12-95-.11-7.82.7-23.1,8.92-39.88,7.75-15.84,18.44-25.56,24.53-30.35,0,0,22-18.26,45.61-19.94,7.13-.51,13.06,1.23,13.06,1.23,3.26.96,5.78,2.24,7.41,3.18,36.51,21.04,73.02,42.08,109.53,63.12,8.83,5.28,27.46,18.25,36.68,41.88,5.25,13.45,5.53,25.44,5.65,32.74.28,18.68-4.25,33.55-7.77,42.52-53.12-31.14-106.23-62.29-159.35-93.44-.03,80.24-.06,160.88-.09,241.12,5.56.47,11.19.71,16.88.71,110.33,0,199.77-89.44,199.77-199.77S310.09,0,199.76,0Zm-11.94,340.62v-94.68l32.56-15.88,80.74,46.85-113.3,63.71Z"/>
  </g>
</svg>