<?xml version="1.0" encoding="UTF-8"?>
<svg id="Layer_2" data-name="Layer 2" xmlns="http://www.w3.org/2000/svg" xmlns:xlink="http://www.w3.org/1999/xlink" viewBox="0 0 399.53 399.53">
  <defs>
    <style>
      .cls-1 {
        fill: #fff;
      }

      .cls-2 {
        fill: url(#linear-gradient);
      }
    </style>
    <linearGradient id="linear-gradient" x1="56.67" y1="308.84" x2="349.99" y2="85.25" gradientUnits="userSpaceOnUse">
      <stop offset="0" stop-color="#3e3b92"/>
      <stop offset="1" stop-color="#f44369"/>
    </linearGradient>
  </defs>
  <g id="Layer_1-2" data-name="Layer 1">
    <g>
      <circle class="cls-2" cx="199.76" cy="199.76" r="199.76"/>
      <path class="cls-1" d="m95.71,290.5l-57.35,27.79c6.23,8.33,14.37,17.89,24.79,27.53,11.62,10.74,22.96,18.71,32.56,24.53v-79.85Z"/>
      <path class="cls-1" d="m99.41,372.54c10.14,5.77,23.1,12.3,39.01,17.39,16.94,5.43,32.34,7.78,44.46,8.89.03-80.24.06-160.88.09-241.11,53.12,31.15,106.24,62.29,159.35,93.44,3.52-8.98,8.05-23.85,7.76-42.53-.11-7.29-.4-19.29-5.65-32.74-9.22-23.63-27.85-36.6-36.68-41.88-36.51-21.04-73.02-42.08-109.53-63.12-1.63-.94-4.16-2.22-7.41-3.18,0,0-5.93-1.74-13.06-1.24-23.61,1.68-45.62,19.94-45.62,19.94-6.08,4.79-16.78,14.51-24.53,30.35-8.21,16.78-9.03,32.06-8.91,39.88.04,31.67.08,63.33.12,95,.2,40.19.39,80.7.59,120.89Z"/>
      <polygon class="cls-1" points="187.82 245.94 220.38 230.06 301.12 276.91 187.82 340.62 187.82 245.94"/>
    </g>
  </g>
</svg>