<?xml version="1.0" encoding="UTF-8"?>
<svg id="Layer_2" data-name="Layer 2" xmlns="http://www.w3.org/2000/svg" xmlns:xlink="http://www.w3.org/1999/xlink" viewBox="0 0 197 197">
  <defs>
    <style>
      .cls-1 {
        fill: url(#linear-gradient);
      }
    </style>
    <linearGradient id="linear-gradient" x1="28.1" y1="44.51" x2="172.73" y2="154.76" gradientUnits="userSpaceOnUse">
      <stop offset="0" stop-color="#1effbc"/>
      <stop offset="1" stop-color="#2a4c7e"/>
    </linearGradient>
  </defs>
  <g id="Layer_1-2" data-name="Layer 1">
    <g id="Layer_1-2" data-name="Layer 1-2">
      <path class="cls-1" d="m98.5,0C44.1,0,0,44.1,0,98.5c0,21.83,7.1,42,19.13,58.33l28.06-13.59v39.36c.6.36,1.21.73,1.82,1.08-.1-19.81-.19-39.79-.29-59.61-.02-15.61-.04-31.22-.06-46.84-.06-3.86.35-11.39,4.39-19.67,3.83-7.81,9.1-12.6,12.1-14.96,0,0,10.85-9,22.49-9.83,3.52-.25,6.44.61,6.44.61,1.61.47,2.85,1.1,3.66,1.57,18,10.37,36,20.75,54.01,31.12,4.35,2.6,13.54,9,18.08,20.65,2.59,6.63,2.73,12.55,2.79,16.14.14,9.22-2.09,16.55-3.83,20.98-26.19-15.36-52.38-30.72-78.57-46.08-.02,39.56-.03,79.32-.05,118.88,2.75.24,5.52.36,8.33.36,54.4,0,98.5-44.1,98.5-98.5S152.9,0,98.5,0Zm-5.89,167.95v-46.68l16.05-7.83,39.82,23.1-55.87,31.41Z"/>
    </g>
  </g>
</svg>