<?xml version="1.0" encoding="UTF-8"?>
<svg id="Layer_2" data-name="Layer 2" xmlns="http://www.w3.org/2000/svg" xmlns:xlink="http://www.w3.org/1999/xlink" viewBox="0 0 531.52 531.52">
  <defs>
    <style>
      .cls-1 {
        fill: #fff;
      }

      .cls-2 {
        fill: url(#linear-gradient);
      }
    </style>
    <linearGradient id="linear-gradient" x1="-488.61" y1="1949.13" x2="-98.38" y2="2246.59" gradientTransform="translate(564 2360) scale(1 -1)" gradientUnits="userSpaceOnUse">
      <stop offset="0" stop-color="#1effbc"/>
      <stop offset="1" stop-color="#2a4c7e"/>
    </linearGradient>
  </defs>
  <g id="Layer_1-2" data-name="Layer 1">
    <g id="Layer_1-2" data-name="Layer 1-2">
      <g>
        <circle class="cls-2" cx="265.76" cy="265.76" r="265.76"/>
        <path class="cls-1" d="m127.33,386.48l-76.3,36.97c8.29,11.08,19.12,23.8,32.98,36.63,15.46,14.29,30.55,24.89,43.32,32.63,0,0,0-106.23,0-106.23Z"/>
        <path class="cls-1" d="m132.25,495.63c13.49,7.68,30.73,16.36,51.9,23.14,22.54,7.22,43.03,10.35,59.15,11.83.04-106.75.08-214.03.12-320.77,70.67,41.44,141.34,82.87,212,124.31,4.68-11.95,10.71-31.73,10.32-56.58-.15-9.7-.53-25.66-7.52-43.56-12.27-31.44-37.05-48.69-48.8-55.72-48.57-27.99-97.15-55.98-145.72-83.97-2.17-1.25-5.53-2.95-9.86-4.23,0,0-7.89-2.31-17.37-1.65-31.41,2.24-60.69,26.53-60.69,26.53-8.09,6.37-22.32,19.3-32.63,40.38-10.92,22.32-12.01,42.65-11.85,53.06.05,42.13.11,84.25.16,126.39.27,53.47.52,107.36.78,160.83v.03Z"/>
        <polygon class="cls-1" points="249.88 327.2 293.19 306.07 400.61 368.4 249.88 453.16 249.88 327.2"/>
      </g>
    </g>
  </g>
</svg>