<?xml version="1.0" encoding="UTF-8"?>
<svg id="Layer_2" data-name="Layer 2" xmlns="http://www.w3.org/2000/svg" viewBox="0 0 618.43 233.41">
  <defs>
    <style>
      .cls-1, .cls-2 {
        fill: #fff;
      }

      .cls-2 {
        font-family: Montserrat-LightItalic, Montserrat;
        font-size: 101px;
        font-style: italic;
        font-weight: 300;
        letter-spacing: .03em;
      }
    </style>
  </defs>
  <g id="Layer_1-2" data-name="Layer 1">
    <g>
      <g id="Layer_1-2" data-name="Layer 1-2">
        <path class="cls-1" d="m98.5,10.91C44.1,10.91,0,55.01,0,109.41c0,21.83,7.1,42,19.13,58.33l28.06-13.59v39.35c.6.37,1.21.73,1.82,1.09-.1-19.81-.19-39.79-.29-59.61-.02-15.61-.04-31.22-.06-46.84-.06-3.86.35-11.39,4.4-19.67,3.82-7.81,9.09-12.6,12.09-14.96,0,0,10.85-9,22.5-9.83,3.51-.25,6.44.61,6.44.61,1.6.47,2.85,1.1,3.65,1.57,18,10.37,36,20.75,54.01,31.12,4.35,2.6,13.54,9,18.08,20.65,2.59,6.63,2.74,12.55,2.79,16.14.14,9.22-2.09,16.55-3.83,20.98-26.18-15.36-52.38-30.72-78.57-46.08-.02,39.56-.03,79.32-.04,118.88h0c2.74.24,5.52.36,8.32.36,54.4,0,98.5-44.1,98.5-98.5S152.9,10.91,98.5,10.91Zm-5.89,167.95v-46.68l16.06-7.83,39.81,23.1-55.87,31.41Z"/>
      </g>
      <text class="cls-2" transform="translate(228.08 85.85)"><tspan x="0" y="0">BF</tspan><tspan x="0" y="121.2">MEDIA</tspan></text>
    </g>
  </g>
</svg>