<svg width="2307" height="287" viewBox="0 0 2307 287" fill="none" xmlns="http://www.w3.org/2000/svg">
<path d="M601.629 72.5166C651.025 56.9707 697.447 43.2527 721.689 42.2722C752.91 41.0094 784.021 42.3266 815.307 42.6956C853.761 43.1491 892.242 42.5877 930.609 41.6738C970.032 40.7347 1009.47 38.7411 1048.62 35.8739C1057.12 35.2514 1057.74 35.0576 1049.96 37.1269C1044.22 38.6547 1038.41 39.752 1033.1 41.9487C1029.38 43.488 1041.9 42.3877 1046.24 42.0685C1060.54 41.017 1074.68 38.8652 1088.98 37.6777C1165.19 31.3512 1240.53 21.8641 1317.16 17.0966C1365.3 14.1017 1413.76 14.4755 1461.86 11.4851C1473.32 10.773 1484.67 9.3237 1496.23 9.36763C1496.26 9.36775 1496.3 9.36793 1496.33 9.36817C1498.76 8.45004 1501.03 7.89949 1502.04 8.58672C1503.47 9.55873 1498.39 9.38155 1496.33 9.36817C1492.95 10.6465 1489.27 12.6374 1488.29 12.9923C1485.2 14.1112 1482.01 14.5639 1478.81 15.4246C1476.75 15.981 1498.99 16.4907 1500.08 16.4821C1537.81 16.1848 1575.09 11.1954 1612.75 9.94372C1647.44 8.79116 1682.19 8.53526 1716.88 7.212C1755.75 5.72891 1794.69 4.7685 1833.52 2.96C1883.63 0.626392 1933.81 5.16977 1983.96 4.69037C1996.58 4.56978 2009.47 3.74433 2021.75 1.89099C2026.05 1.24175 2030.37 0.0495146 2034.87 0.258591C2035.84 0.303741 2034.7 0.241635 2032.55 0.851494C2022.09 3.82349 2012.04 7.43753 2001.62 10.4844C1975 18.2706 1947.51 24.6881 1920.25 31.4273C1937.88 30.1523 1955.53 28.9493 1973.13 27.6194C1980.54 26.7263 1987.94 25.8117 1995.33 24.873C2024.68 20.4288 2054.12 16.2256 2083.63 12.19C2084.01 12.1377 2084.39 12.0857 2084.77 12.0338C2105.09 8.56854 2137.7 2.62623 2124.27 5.74031C2111.57 8.68539 2097.91 10.2555 2084.77 12.0338C2081.05 12.6696 2077.73 13.2221 2075.19 13.6199C2048.68 17.7721 2022.05 21.4803 1995.33 24.873C1990.77 25.5649 1986.2 26.2627 1981.63 26.9665C1986.14 26.6144 1990.64 26.2518 1995.13 25.8755C2009.95 24.6353 2019.57 23.7019 2033.93 22.6329C2040.82 22.1202 2059.96 18.5556 2054.7 21.6355C2049.92 24.4313 2043.25 25.1305 2037.52 26.8628C2007.73 35.8662 1978.03 45.0051 1948.2 53.961C1902.24 67.7628 1856.04 81.1842 1810.03 94.9038C1805.33 96.305 1796.94 98.8522 1791.45 100.346C1789.89 100.771 1784.97 101.431 1791.63 100.705C1839.8 95.4511 1886.51 85.6956 1933.93 78.2381C2032.08 62.8018 2131.34 53.0819 2230.94 42.7082C2251.25 40.5927 2268.75 38.6504 2288.52 36.1344L2288.65 36.1084C2290.11 35.823 2303.03 33.2851 2305.97 33.5819C2307.09 33.695 2304.27 34.5991 2303.32 34.9998C2293.08 39.2896 2282.16 42.9604 2271.31 46.4041C2222.69 61.8288 2170.87 72.7021 2119.4 82.786C2041.95 97.9605 1963.42 110.574 1884.93 123.111C1840.23 130.25 1868.78 125.672 1833.04 131.351C1828.62 132.052 1824.2 132.739 1819.79 133.468C1816.27 134.05 1810.61 133.125 1809.34 135.504C1807.68 138.618 1818.84 134.996 1823.53 134.482C1854.28 131.114 1884.73 126.641 1915.24 122.487C1995.21 111.598 2075.5 102.125 2156.24 93.884C2201.15 89.2995 2246.94 82.7966 2292.27 79.8832C2295.06 79.7037 2287.71 82.1425 2285.15 82.9156C2254.8 92.1068 2223.62 99.7108 2191.91 106.469C2096.17 126.877 1998.47 143.115 1900.18 157.096C1880.42 159.907 1871.82 160.971 1853.45 163.893C1850.35 164.385 1847.26 164.905 1844.21 165.496C1838.73 166.555 1841.52 166.428 1845.97 166.138C1909.63 161.993 1972.57 151.834 2035.62 145.169C2122.06 136.032 2209.43 127.252 2297.24 125.16C2319.92 124.62 2285.32 131.873 2281.84 132.782C2232.86 145.591 2180.86 151.415 2129.02 156.652C2041.75 165.465 1953.82 170.288 1866.02 176.386C1804.44 180.663 1743.38 188.658 1682.09 194.328C1543.76 207.126 1405.96 221.355 1267.13 232.088C1107.44 244.435 947.053 254.752 786.722 263.587C701.92 268.259 617.619 274.055 533.123 280.325C512.155 281.881 491.024 285.398 469.822 285.583C466.388 285.613 456.16 286.288 459.545 285.946C476.395 284.246 493.627 278.146 508.923 273.737C584.436 251.97 660.224 230.673 735.858 209.103C760.363 202.115 785.875 195.492 809.032 186.44C809.193 186.377 811.457 185.704 811.489 185.012C811.608 182.444 804.197 185.432 800.682 186.052C754.537 194.198 707.819 198.288 660.137 200.824C572.045 205.508 483.528 207.562 395.142 209.818C375.167 210.327 354.342 209.771 334.434 211.445C332.925 211.693 331.41 211.917 329.887 212.112C325.191 212.715 328.951 211.958 331.1 211.748C332.208 211.64 333.32 211.539 334.434 211.445C353.018 208.39 370.607 201.578 388.172 196.884C429.709 185.784 472.673 177.271 516.295 170.747C519.78 170.226 530.318 169.203 526.73 169.129C515.023 168.891 497.997 172.406 487.768 173.696C398.326 184.971 308.066 198.794 217.227 205.528C161.711 213.402 130.517 217.264 170.811 209.771C179.162 208.218 188.26 207.447 196.844 206.916C203.641 206.496 210.436 206.032 217.227 205.528C282.647 196.25 381.842 181.402 437.632 173.001C434.418 173.069 431.304 173.082 428.295 173.039C316.783 171.419 205.302 168.578 93.8121 168.228C66.6181 168.142 39.0323 167.781 12.0471 169.966C3.37372 170.668 -7.25967 172.397 9.8668 169.725C62.2031 161.558 113.499 150.516 165.574 141.645C238.25 129.266 311.899 120.486 384.933 109.306L385.675 109.192C388.055 108.829 390.545 108.448 393.05 108.018C394.274 106.949 396.204 105.704 398.9 104.27C371.766 105.987 344.533 106.639 317.247 106.95C300.702 111.354 283.433 114.79 266.683 118.037C205.94 129.811 143.379 138.166 80.6052 143.725C73.8598 144.323 59.9642 144.904 50.0741 145.297C47.2507 145.561 44.413 145.724 41.561 145.766C35.3106 145.857 41.0104 145.657 50.0741 145.297C70.991 143.343 91.1238 135.867 110.472 131.241C152.775 121.127 196.187 113.391 240.187 107.322C225.857 107.307 211.985 107.242 192.576 107.17C176.808 107.112 130.189 109.839 145.27 106.936C151.983 105.643 159.146 105.737 166.075 105.099C191.147 102.792 216.124 100.062 241.222 97.8698C264.076 95.8738 276.801 94.9522 299.776 94.003C307.715 93.675 339.642 90.1815 349.067 94.4C349.669 94.6699 349.871 94.984 349.781 95.3239C370.037 93.5958 390.326 92.0906 410.599 90.7417C416.311 90.3616 425.83 89.5545 438.091 88.4393C479.905 73.697 552.7 51.4099 667.78 19.0327C667.734 18.9604 586.979 52.4323 515.008 81.0737C542.794 78.3465 572.898 75.3566 601.629 72.5166Z" fill="url(#paint0_linear_120_3)"/>
<defs>
<linearGradient id="paint0_linear_120_3" x1="584.5" y1="139" x2="2301.82" y2="192.128" gradientUnits="userSpaceOnUse">
<stop stop-color="#F44369"/>
<stop offset="1" stop-color="#3E3B92"/>
</linearGradient>
</defs>
</svg>
